<svg xmlns="http://www.w3.org/2000/svg" xmlns:xlink="http://www.w3.org/1999/xlink" width="2000" zoomAndPan="magnify" viewBox="0 0 1500 899.99999" height="1200" preserveAspectRatio="xMidYMid meet" version="1.0"><defs><g/></defs><g fill="#ffffff" fill-opacity="1"><g transform="translate(13.018806, 526.450596)"><g><path d="M 0 0 L 0 -4.59375 L 19.109375 -4.59375 L 82.828125 -178.40625 L 107.046875 -178.40625 L 170.765625 -4.59375 L 190.140625 -4.59375 L 190.140625 0 L 127.6875 0 L 127.6875 -4.59375 L 145.03125 -4.59375 L 120.296875 -72.125 L 48.6875 -72.125 L 23.953125 -4.59375 L 43.078125 -4.59375 L 43.078125 0 Z M 50.203125 -76.46875 L 118.765625 -76.46875 L 84.359375 -169.75 Z M 50.203125 -76.46875 "/></g></g></g><g fill="#ffffff" fill-opacity="1"><g transform="translate(203.158904, 526.450596)"><g><path d="M 9.4375 0 L 9.4375 -4.59375 L 27.015625 -4.59375 L 27.015625 -123.109375 L 9.4375 -123.109375 L 9.4375 -127.4375 L 49.453125 -127.4375 L 49.453125 -104.75 C 52.335938 -112.738281 56.410156 -118.941406 61.671875 -123.359375 C 66.941406 -127.773438 73.234375 -129.984375 80.546875 -129.984375 L 87.171875 -129.984375 C 98.378906 -129.984375 107.125 -126.878906 113.40625 -120.671875 C 119.695312 -114.472656 122.84375 -106.191406 122.84375 -95.828125 C 122.84375 -88.523438 119.191406 -84.875 111.890625 -84.875 C 104.410156 -84.875 100.671875 -88.523438 100.671875 -95.828125 L 100.671875 -103.734375 C 100.671875 -112.234375 99.3125 -118.007812 96.59375 -121.0625 C 93.875 -124.125 88.523438 -125.65625 80.546875 -125.65625 C 71.703125 -125.65625 64.519531 -121.703125 59 -113.796875 C 53.476562 -105.898438 50.296875 -94.726562 49.453125 -80.28125 L 49.453125 -4.59375 L 67.03125 -4.59375 L 67.03125 0 Z M 9.4375 0 "/></g></g></g><g fill="#ffffff" fill-opacity="1"><g transform="translate(330.343786, 526.450596)"><g><path d="M 7.390625 -0.25 L 7.390625 -4.59375 L 24.984375 -4.59375 L 24.984375 -174.078125 L 7.390625 -174.078125 L 7.390625 -178.671875 L 47.15625 -178.671875 L 47.15625 -52.5 L 117.75 -123.109375 L 96.09375 -123.109375 L 96.09375 -127.6875 L 148.59375 -127.6875 L 148.59375 -123.109375 L 123.875 -123.109375 L 85.640625 -84.875 L 134.0625 -4.59375 L 148.84375 -4.59375 L 148.84375 -0.25 L 111.640625 -0.25 L 69.078125 -68.3125 L 47.15625 -46.390625 L 47.15625 -4.59375 L 64.734375 -4.59375 L 64.734375 -0.25 Z M 7.390625 -0.25 "/></g></g></g><g fill="#ffffff" fill-opacity="1"><g transform="translate(479.193402, 526.450596)"><g><path d="M 7.390625 -0.25 L 7.390625 -4.59375 L 24.984375 -4.59375 L 24.984375 -174.078125 L 7.390625 -174.078125 L 7.390625 -178.671875 L 47.15625 -178.671875 L 47.15625 -52.5 L 117.75 -123.109375 L 96.09375 -123.109375 L 96.09375 -127.6875 L 148.59375 -127.6875 L 148.59375 -123.109375 L 123.875 -123.109375 L 85.640625 -84.875 L 134.0625 -4.59375 L 148.84375 -4.59375 L 148.84375 -0.25 L 111.640625 -0.25 L 69.078125 -68.3125 L 47.15625 -46.390625 L 47.15625 -4.59375 L 64.734375 -4.59375 L 64.734375 -0.25 Z M 7.390625 -0.25 "/></g></g></g><g fill="#ffffff" fill-opacity="1"><g transform="translate(628.043042, 526.450596)"><g><path d="M 99.65625 -93.03125 C 99.65625 -103.5625 96.34375 -111.628906 89.71875 -117.234375 C 83.09375 -122.847656 74.507812 -125.65625 63.96875 -125.65625 C 56.832031 -125.65625 51.394531 -125.015625 47.65625 -123.734375 C 43.914062 -122.460938 41.320312 -120.082031 39.875 -116.59375 C 38.4375 -113.113281 37.71875 -107.976562 37.71875 -101.1875 L 37.71875 -94.8125 C 37.71875 -92.09375 36.910156 -89.796875 35.296875 -87.921875 C 33.679688 -86.054688 31.09375 -85.125 27.53125 -85.125 C 24.125 -85.125 21.570312 -86.015625 19.875 -87.796875 C 18.175781 -89.585938 17.328125 -91.925781 17.328125 -94.8125 C 17.328125 -105.851562 21.445312 -114.472656 29.6875 -120.671875 C 37.925781 -126.878906 49.351562 -129.984375 63.96875 -129.984375 C 83 -129.984375 97.441406 -126.5 107.296875 -119.53125 C 117.148438 -112.570312 122.078125 -101.019531 122.078125 -84.875 L 122.078125 -4.59375 L 139.671875 -4.59375 L 139.671875 0 L 99.65625 0 L 99.65625 -16.3125 C 96.425781 -10.019531 91.582031 -5.300781 85.125 -2.15625 C 78.664062 0.976562 71.019531 2.546875 62.1875 2.546875 L 57.09375 2.546875 C 42.988281 2.546875 31.984375 -1.144531 24.078125 -8.53125 C 16.179688 -15.925781 12.234375 -25.828125 12.234375 -38.234375 C 12.234375 -50.804688 16.140625 -60.742188 23.953125 -68.046875 C 31.773438 -75.359375 42.820312 -79.015625 57.09375 -79.015625 L 62.1875 -79.015625 C 71.019531 -79.015625 78.664062 -77.441406 85.125 -74.296875 C 91.582031 -71.148438 96.425781 -66.4375 99.65625 -60.15625 Z M 34.40625 -26.765625 C 34.40625 -19.117188 36.828125 -13.082031 41.671875 -8.65625 C 46.515625 -4.238281 53.351562 -2.03125 62.1875 -2.03125 C 73.0625 -2.03125 81.769531 -4.535156 88.3125 -9.546875 C 94.851562 -14.566406 98.632812 -22.257812 99.65625 -32.625 L 99.65625 -43.84375 C 98.632812 -54.375 94.765625 -62.144531 88.046875 -67.15625 C 81.335938 -72.164062 72.71875 -74.671875 62.1875 -74.671875 C 53.351562 -74.671875 46.515625 -72.421875 41.671875 -67.921875 C 36.828125 -63.421875 34.40625 -57.429688 34.40625 -49.953125 Z M 34.40625 -26.765625 "/></g></g></g><g fill="#ffffff" fill-opacity="1"><g transform="translate(774.853658, 526.450596)"><g><path d="M 9.4375 0 L 9.4375 -4.59375 L 27.015625 -4.59375 L 27.015625 -123.109375 L 9.4375 -123.109375 L 9.4375 -127.4375 L 49.453125 -127.4375 L 49.453125 -104.75 C 52.335938 -112.738281 56.410156 -118.941406 61.671875 -123.359375 C 66.941406 -127.773438 73.234375 -129.984375 80.546875 -129.984375 L 87.171875 -129.984375 C 98.378906 -129.984375 107.125 -126.878906 113.40625 -120.671875 C 119.695312 -114.472656 122.84375 -106.191406 122.84375 -95.828125 C 122.84375 -88.523438 119.191406 -84.875 111.890625 -84.875 C 104.410156 -84.875 100.671875 -88.523438 100.671875 -95.828125 L 100.671875 -103.734375 C 100.671875 -112.234375 99.3125 -118.007812 96.59375 -121.0625 C 93.875 -124.125 88.523438 -125.65625 80.546875 -125.65625 C 71.703125 -125.65625 64.519531 -121.703125 59 -113.796875 C 53.476562 -105.898438 50.296875 -94.726562 49.453125 -80.28125 L 49.453125 -4.59375 L 67.03125 -4.59375 L 67.03125 0 Z M 9.4375 0 "/></g></g></g><g fill="#ffffff" fill-opacity="1"><g transform="translate(902.038588, 526.450596)"><g><path d="M 99.65625 -93.03125 C 99.65625 -103.5625 96.34375 -111.628906 89.71875 -117.234375 C 83.09375 -122.847656 74.507812 -125.65625 63.96875 -125.65625 C 56.832031 -125.65625 51.394531 -125.015625 47.65625 -123.734375 C 43.914062 -122.460938 41.320312 -120.082031 39.875 -116.59375 C 38.4375 -113.113281 37.71875 -107.976562 37.71875 -101.1875 L 37.71875 -94.8125 C 37.71875 -92.09375 36.910156 -89.796875 35.296875 -87.921875 C 33.679688 -86.054688 31.09375 -85.125 27.53125 -85.125 C 24.125 -85.125 21.570312 -86.015625 19.875 -87.796875 C 18.175781 -89.585938 17.328125 -91.925781 17.328125 -94.8125 C 17.328125 -105.851562 21.445312 -114.472656 29.6875 -120.671875 C 37.925781 -126.878906 49.351562 -129.984375 63.96875 -129.984375 C 83 -129.984375 97.441406 -126.5 107.296875 -119.53125 C 117.148438 -112.570312 122.078125 -101.019531 122.078125 -84.875 L 122.078125 -4.59375 L 139.671875 -4.59375 L 139.671875 0 L 99.65625 0 L 99.65625 -16.3125 C 96.425781 -10.019531 91.582031 -5.300781 85.125 -2.15625 C 78.664062 0.976562 71.019531 2.546875 62.1875 2.546875 L 57.09375 2.546875 C 42.988281 2.546875 31.984375 -1.144531 24.078125 -8.53125 C 16.179688 -15.925781 12.234375 -25.828125 12.234375 -38.234375 C 12.234375 -50.804688 16.140625 -60.742188 23.953125 -68.046875 C 31.773438 -75.359375 42.820312 -79.015625 57.09375 -79.015625 L 62.1875 -79.015625 C 71.019531 -79.015625 78.664062 -77.441406 85.125 -74.296875 C 91.582031 -71.148438 96.425781 -66.4375 99.65625 -60.15625 Z M 34.40625 -26.765625 C 34.40625 -19.117188 36.828125 -13.082031 41.671875 -8.65625 C 46.515625 -4.238281 53.351562 -2.03125 62.1875 -2.03125 C 73.0625 -2.03125 81.769531 -4.535156 88.3125 -9.546875 C 94.851562 -14.566406 98.632812 -22.257812 99.65625 -32.625 L 99.65625 -43.84375 C 98.632812 -54.375 94.765625 -62.144531 88.046875 -67.15625 C 81.335938 -72.164062 72.71875 -74.671875 62.1875 -74.671875 C 53.351562 -74.671875 46.515625 -72.421875 41.671875 -67.921875 C 36.828125 -63.421875 34.40625 -57.429688 34.40625 -49.953125 Z M 34.40625 -26.765625 "/></g></g></g><g fill="#ffffff" fill-opacity="1"><g transform="translate(1048.849204, 526.450596)"><g><path d="M 136.875 0 L 108.328125 -78.25 L 80.28125 0 L 57.859375 0 L 12.484375 -123.109375 L -6.625 -123.109375 L -6.625 -127.4375 L 34.40625 -127.4375 L 78.25 -8.921875 L 105.765625 -84.875 L 91.75 -123.109375 L 72.390625 -123.109375 L 72.390625 -127.4375 L 134.578125 -127.4375 L 134.578125 -123.109375 L 114.953125 -123.109375 L 157.515625 -8.921875 L 199.828125 -123.109375 L 182.484375 -123.109375 L 182.484375 -127.4375 L 222 -127.4375 L 222 -123.109375 L 204.40625 -123.109375 L 159.546875 0 Z M 136.875 0 "/></g></g></g><g fill="#ffffff" fill-opacity="1"><g transform="translate(1264.222361, 526.450596)"><g><path d="M 9.4375 0 L 9.4375 -4.59375 L 27.015625 -4.59375 L 27.015625 -123.109375 L 9.4375 -123.109375 L 9.4375 -127.4375 L 49.1875 -127.4375 L 49.1875 -4.59375 L 67.03125 -4.59375 L 67.03125 0 Z M 22.6875 -170.25 C 22.6875 -174.675781 24.171875 -178.375 27.140625 -181.34375 C 30.117188 -184.3125 33.726562 -185.796875 37.96875 -185.796875 C 42.394531 -185.796875 46.09375 -184.3125 49.0625 -181.34375 C 52.039062 -178.375 53.53125 -174.675781 53.53125 -170.25 C 53.53125 -166.007812 52.039062 -162.398438 49.0625 -159.421875 C 46.09375 -156.453125 42.394531 -154.96875 37.96875 -154.96875 C 33.726562 -154.96875 30.117188 -156.453125 27.140625 -159.421875 C 24.171875 -162.398438 22.6875 -166.007812 22.6875 -170.25 Z M 22.6875 -170.25 "/></g></g></g><g fill="#ffffff" fill-opacity="1"><g transform="translate(1338.392296, 526.450596)"><g><path d="M 114.4375 -92.78125 C 114.4375 -103.144531 111.929688 -111.210938 106.921875 -116.984375 C 101.910156 -122.765625 95.238281 -125.65625 86.90625 -125.65625 C 76.539062 -125.65625 67.914062 -122.171875 61.03125 -115.203125 C 54.15625 -108.234375 50.207031 -97.695312 49.1875 -83.59375 L 49.1875 -4.59375 L 67.03125 -4.59375 L 67.03125 0 L 9.4375 0 L 9.4375 -4.59375 L 27.015625 -4.59375 L 27.015625 -123.109375 L 9.4375 -123.109375 L 9.4375 -127.4375 L 49.1875 -127.4375 L 49.1875 -104.25 C 52.582031 -112.738281 57.507812 -119.148438 63.96875 -123.484375 C 70.425781 -127.816406 78.070312 -129.984375 86.90625 -129.984375 L 89.96875 -129.984375 C 104.070312 -129.984375 115.414062 -125.476562 124 -116.46875 C 132.582031 -107.46875 136.875 -94.132812 136.875 -76.46875 L 136.875 -4.59375 L 154.453125 -4.59375 L 154.453125 0 L 114.4375 0 Z M 114.4375 -92.78125 "/></g></g></g></svg>