<svg xmlns="http://www.w3.org/2000/svg" xmlns:xlink="http://www.w3.org/1999/xlink" width="1920" zoomAndPan="magnify" viewBox="0 0 1440 809.999993" height="1080" preserveAspectRatio="xMidYMid meet" version="1.0"><defs><g/></defs><g fill="#ffffff" fill-opacity="1"><g transform="translate(12.498052, 479.512642)"><g><path d="M 0 0 L 0 -4.359375 L 18.1875 -4.359375 L 78.828125 -169.78125 L 101.875 -169.78125 L 162.5 -4.359375 L 180.9375 -4.359375 L 180.9375 0 L 121.515625 0 L 121.515625 -4.359375 L 138.015625 -4.359375 L 114.484375 -68.640625 L 46.328125 -68.640625 L 22.796875 -4.359375 L 40.984375 -4.359375 L 40.984375 0 Z M 47.78125 -72.765625 L 113.03125 -72.765625 L 80.28125 -161.53125 Z M 47.78125 -72.765625 "/></g></g></g><g fill="#ffffff" fill-opacity="1"><g transform="translate(193.434418, 479.512642)"><g><path d="M 8.96875 0 L 8.96875 -4.359375 L 25.703125 -4.359375 L 25.703125 -117.15625 L 8.96875 -117.15625 L 8.96875 -121.265625 L 47.046875 -121.265625 L 47.046875 -99.6875 C 49.796875 -107.289062 53.675781 -113.191406 58.6875 -117.390625 C 63.707031 -121.597656 69.691406 -123.703125 76.640625 -123.703125 L 82.953125 -123.703125 C 93.617188 -123.703125 101.941406 -120.75 107.921875 -114.84375 C 113.910156 -108.945312 116.90625 -101.066406 116.90625 -91.203125 C 116.90625 -84.242188 113.429688 -80.765625 106.484375 -80.765625 C 99.367188 -80.765625 95.8125 -84.242188 95.8125 -91.203125 L 95.8125 -98.71875 C 95.8125 -106.800781 94.515625 -112.296875 91.921875 -115.203125 C 89.335938 -118.117188 84.242188 -119.578125 76.640625 -119.578125 C 68.234375 -119.578125 61.398438 -115.816406 56.140625 -108.296875 C 50.890625 -100.773438 47.859375 -90.144531 47.046875 -76.40625 L 47.046875 -4.359375 L 63.796875 -4.359375 L 63.796875 0 Z M 8.96875 0 "/></g></g></g><g fill="#ffffff" fill-opacity="1"><g transform="translate(314.462916, 479.512642)"><g><path d="M 7.03125 -0.25 L 7.03125 -4.359375 L 23.765625 -4.359375 L 23.765625 -165.65625 L 7.03125 -165.65625 L 7.03125 -170.03125 L 44.875 -170.03125 L 44.875 -49.96875 L 112.0625 -117.15625 L 91.4375 -117.15625 L 91.4375 -121.515625 L 141.40625 -121.515625 L 141.40625 -117.15625 L 117.875 -117.15625 L 81.5 -80.765625 L 127.578125 -4.359375 L 141.640625 -4.359375 L 141.640625 -0.25 L 106.234375 -0.25 L 65.734375 -65 L 44.875 -44.140625 L 44.875 -4.359375 L 61.609375 -4.359375 L 61.609375 -0.25 Z M 7.03125 -0.25 "/></g></g></g><g fill="#ffffff" fill-opacity="1"><g transform="translate(456.107466, 479.512642)"><g><path d="M 7.03125 -0.25 L 7.03125 -4.359375 L 23.765625 -4.359375 L 23.765625 -165.65625 L 7.03125 -165.65625 L 7.03125 -170.03125 L 44.875 -170.03125 L 44.875 -49.96875 L 112.0625 -117.15625 L 91.4375 -117.15625 L 91.4375 -121.515625 L 141.40625 -121.515625 L 141.40625 -117.15625 L 117.875 -117.15625 L 81.5 -80.765625 L 127.578125 -4.359375 L 141.640625 -4.359375 L 141.640625 -0.25 L 106.234375 -0.25 L 65.734375 -65 L 44.875 -44.140625 L 44.875 -4.359375 L 61.609375 -4.359375 L 61.609375 -0.25 Z M 7.03125 -0.25 "/></g></g></g><g fill="#ffffff" fill-opacity="1"><g transform="translate(597.752039, 479.512642)"><g><path d="M 94.828125 -88.53125 C 94.828125 -98.550781 91.675781 -106.226562 85.375 -111.5625 C 79.070312 -116.90625 70.90625 -119.578125 60.875 -119.578125 C 54.082031 -119.578125 48.90625 -118.96875 45.34375 -117.75 C 41.789062 -116.539062 39.328125 -114.28125 37.953125 -110.96875 C 36.578125 -107.65625 35.890625 -102.765625 35.890625 -96.296875 L 35.890625 -90.234375 C 35.890625 -87.640625 35.117188 -85.453125 33.578125 -83.671875 C 32.046875 -81.898438 29.582031 -81.015625 26.1875 -81.015625 C 22.957031 -81.015625 20.535156 -81.863281 18.921875 -83.5625 C 17.304688 -85.257812 16.5 -87.484375 16.5 -90.234375 C 16.5 -100.742188 20.414062 -108.945312 28.25 -114.84375 C 36.09375 -120.75 46.96875 -123.703125 60.875 -123.703125 C 78.988281 -123.703125 92.734375 -120.382812 102.109375 -113.75 C 111.492188 -107.125 116.1875 -96.128906 116.1875 -80.765625 L 116.1875 -4.359375 L 132.921875 -4.359375 L 132.921875 0 L 94.828125 0 L 94.828125 -15.515625 C 91.765625 -9.535156 87.160156 -5.050781 81.015625 -2.0625 C 74.867188 0.925781 67.59375 2.421875 59.1875 2.421875 L 54.328125 2.421875 C 40.910156 2.421875 30.441406 -1.09375 22.921875 -8.125 C 15.398438 -15.15625 11.640625 -24.570312 11.640625 -36.375 C 11.640625 -48.34375 15.359375 -57.800781 22.796875 -64.75 C 30.234375 -71.707031 40.742188 -75.1875 54.328125 -75.1875 L 59.1875 -75.1875 C 67.59375 -75.1875 74.867188 -73.691406 81.015625 -70.703125 C 87.160156 -67.710938 91.765625 -63.222656 94.828125 -57.234375 Z M 32.75 -25.46875 C 32.75 -18.1875 35.050781 -12.441406 39.65625 -8.234375 C 44.257812 -4.035156 50.769531 -1.9375 59.1875 -1.9375 C 69.53125 -1.9375 77.8125 -4.320312 84.03125 -9.09375 C 90.257812 -13.863281 93.859375 -21.179688 94.828125 -31.046875 L 94.828125 -41.71875 C 93.859375 -51.738281 90.179688 -59.132812 83.796875 -63.90625 C 77.410156 -68.675781 69.207031 -71.0625 59.1875 -71.0625 C 50.769531 -71.0625 44.257812 -68.921875 39.65625 -64.640625 C 35.050781 -60.359375 32.75 -54.660156 32.75 -47.546875 Z M 32.75 -25.46875 "/></g></g></g><g fill="#ffffff" fill-opacity="1"><g transform="translate(737.456287, 479.512642)"><g><path d="M 8.96875 0 L 8.96875 -4.359375 L 25.703125 -4.359375 L 25.703125 -117.15625 L 8.96875 -117.15625 L 8.96875 -121.265625 L 47.046875 -121.265625 L 47.046875 -99.6875 C 49.796875 -107.289062 53.675781 -113.191406 58.6875 -117.390625 C 63.707031 -121.597656 69.691406 -123.703125 76.640625 -123.703125 L 82.953125 -123.703125 C 93.617188 -123.703125 101.941406 -120.75 107.921875 -114.84375 C 113.910156 -108.945312 116.90625 -101.066406 116.90625 -91.203125 C 116.90625 -84.242188 113.429688 -80.765625 106.484375 -80.765625 C 99.367188 -80.765625 95.8125 -84.242188 95.8125 -91.203125 L 95.8125 -98.71875 C 95.8125 -106.800781 94.515625 -112.296875 91.921875 -115.203125 C 89.335938 -118.117188 84.242188 -119.578125 76.640625 -119.578125 C 68.234375 -119.578125 61.398438 -115.816406 56.140625 -108.296875 C 50.890625 -100.773438 47.859375 -90.144531 47.046875 -76.40625 L 47.046875 -4.359375 L 63.796875 -4.359375 L 63.796875 0 Z M 8.96875 0 "/></g></g></g><g fill="#ffffff" fill-opacity="1"><g transform="translate(858.48483, 479.512642)"><g><path d="M 94.828125 -88.53125 C 94.828125 -98.550781 91.675781 -106.226562 85.375 -111.5625 C 79.070312 -116.90625 70.90625 -119.578125 60.875 -119.578125 C 54.082031 -119.578125 48.90625 -118.96875 45.34375 -117.75 C 41.789062 -116.539062 39.328125 -114.28125 37.953125 -110.96875 C 36.578125 -107.65625 35.890625 -102.765625 35.890625 -96.296875 L 35.890625 -90.234375 C 35.890625 -87.640625 35.117188 -85.453125 33.578125 -83.671875 C 32.046875 -81.898438 29.582031 -81.015625 26.1875 -81.015625 C 22.957031 -81.015625 20.535156 -81.863281 18.921875 -83.5625 C 17.304688 -85.257812 16.5 -87.484375 16.5 -90.234375 C 16.5 -100.742188 20.414062 -108.945312 28.25 -114.84375 C 36.09375 -120.75 46.96875 -123.703125 60.875 -123.703125 C 78.988281 -123.703125 92.734375 -120.382812 102.109375 -113.75 C 111.492188 -107.125 116.1875 -96.128906 116.1875 -80.765625 L 116.1875 -4.359375 L 132.921875 -4.359375 L 132.921875 0 L 94.828125 0 L 94.828125 -15.515625 C 91.765625 -9.535156 87.160156 -5.050781 81.015625 -2.0625 C 74.867188 0.925781 67.59375 2.421875 59.1875 2.421875 L 54.328125 2.421875 C 40.910156 2.421875 30.441406 -1.09375 22.921875 -8.125 C 15.398438 -15.15625 11.640625 -24.570312 11.640625 -36.375 C 11.640625 -48.34375 15.359375 -57.800781 22.796875 -64.75 C 30.234375 -71.707031 40.742188 -75.1875 54.328125 -75.1875 L 59.1875 -75.1875 C 67.59375 -75.1875 74.867188 -73.691406 81.015625 -70.703125 C 87.160156 -67.710938 91.765625 -63.222656 94.828125 -57.234375 Z M 32.75 -25.46875 C 32.75 -18.1875 35.050781 -12.441406 39.65625 -8.234375 C 44.257812 -4.035156 50.769531 -1.9375 59.1875 -1.9375 C 69.53125 -1.9375 77.8125 -4.320312 84.03125 -9.09375 C 90.257812 -13.863281 93.859375 -21.179688 94.828125 -31.046875 L 94.828125 -41.71875 C 93.859375 -51.738281 90.179688 -59.132812 83.796875 -63.90625 C 77.410156 -68.675781 69.207031 -71.0625 59.1875 -71.0625 C 50.769531 -71.0625 44.257812 -68.921875 39.65625 -64.640625 C 35.050781 -60.359375 32.75 -54.660156 32.75 -47.546875 Z M 32.75 -25.46875 "/></g></g></g><g fill="#ffffff" fill-opacity="1"><g transform="translate(998.189078, 479.512642)"><g><path d="M 130.25 0 L 103.078125 -74.46875 L 76.40625 0 L 55.0625 0 L 11.890625 -117.15625 L -6.3125 -117.15625 L -6.3125 -121.265625 L 32.75 -121.265625 L 74.46875 -8.484375 L 100.65625 -80.765625 L 87.3125 -117.15625 L 68.890625 -117.15625 L 68.890625 -121.265625 L 128.0625 -121.265625 L 128.0625 -117.15625 L 109.390625 -117.15625 L 149.890625 -8.484375 L 190.15625 -117.15625 L 173.65625 -117.15625 L 173.65625 -121.265625 L 211.265625 -121.265625 L 211.265625 -117.15625 L 194.515625 -117.15625 L 151.828125 0 Z M 130.25 0 "/></g></g></g><g fill="#ffffff" fill-opacity="1"><g transform="translate(1203.137098, 479.512642)"><g><path d="M 8.96875 0 L 8.96875 -4.359375 L 25.703125 -4.359375 L 25.703125 -117.15625 L 8.96875 -117.15625 L 8.96875 -121.265625 L 46.8125 -121.265625 L 46.8125 -4.359375 L 63.796875 -4.359375 L 63.796875 0 Z M 21.59375 -162.015625 C 21.59375 -166.222656 23.003906 -169.738281 25.828125 -172.5625 C 28.660156 -175.394531 32.097656 -176.8125 36.140625 -176.8125 C 40.347656 -176.8125 43.863281 -175.394531 46.6875 -172.5625 C 49.519531 -169.738281 50.9375 -166.222656 50.9375 -162.015625 C 50.9375 -157.972656 49.519531 -154.535156 46.6875 -151.703125 C 43.863281 -148.878906 40.347656 -147.46875 36.140625 -147.46875 C 32.097656 -147.46875 28.660156 -148.878906 25.828125 -151.703125 C 23.003906 -154.535156 21.59375 -157.972656 21.59375 -162.015625 Z M 21.59375 -162.015625 "/></g></g></g><g fill="#ffffff" fill-opacity="1"><g transform="translate(1273.716836, 479.512642)"><g><path d="M 108.90625 -88.28125 C 108.90625 -98.144531 106.519531 -105.828125 101.75 -111.328125 C 96.976562 -116.828125 90.628906 -119.578125 82.703125 -119.578125 C 72.835938 -119.578125 64.628906 -116.257812 58.078125 -109.625 C 51.535156 -103 47.78125 -92.976562 46.8125 -79.5625 L 46.8125 -4.359375 L 63.796875 -4.359375 L 63.796875 0 L 8.96875 0 L 8.96875 -4.359375 L 25.703125 -4.359375 L 25.703125 -117.15625 L 8.96875 -117.15625 L 8.96875 -121.265625 L 46.8125 -121.265625 L 46.8125 -99.203125 C 50.039062 -107.285156 54.726562 -113.390625 60.875 -117.515625 C 67.019531 -121.640625 74.296875 -123.703125 82.703125 -123.703125 L 85.625 -123.703125 C 99.039062 -123.703125 109.832031 -119.414062 118 -110.84375 C 126.164062 -102.269531 130.25 -89.578125 130.25 -72.765625 L 130.25 -4.359375 L 146.984375 -4.359375 L 146.984375 0 L 108.90625 0 Z M 108.90625 -88.28125 "/></g></g></g></svg>